<?xml version="1.0" encoding="UTF-8" standalone="no"?>
<svg
   xmlns:dc="http://purl.org/dc/elements/1.1/"
   xmlns:cc="http://creativecommons.org/ns#"
   xmlns:rdf="http://www.w3.org/1999/02/22-rdf-syntax-ns#"
   xmlns:svg="http://www.w3.org/2000/svg"
   xmlns="http://www.w3.org/2000/svg"
   xmlns:sodipodi="http://sodipodi.sourceforge.net/DTD/sodipodi-0.dtd"
   xmlns:inkscape="http://www.inkscape.org/namespaces/inkscape"
   height="1528"
   viewBox="0 0 2040 1528"
   width="2040"
   id="svg3474"
   version="1.1"
   inkscape:version="0.91 r13725"
   sodipodi:docname="cloud-open.svg">
  <metadata
     id="metadata3482">
    <rdf:RDF>
      <cc:Work
         rdf:about="">
        <dc:format>image/svg+xml</dc:format>
        <dc:type
           rdf:resource="http://purl.org/dc/dcmitype/StillImage" />
        <dc:title></dc:title>
      </cc:Work>
    </rdf:RDF>
  </metadata>
  <defs
     id="defs3480" />
  <sodipodi:namedview
     pagecolor="#ffffff"
     bordercolor="#666666"
     borderopacity="1"
     objecttolerance="10"
     gridtolerance="10"
     guidetolerance="10"
     inkscape:pageopacity="0"
     inkscape:pageshadow="2"
     inkscape:window-width="1920"
     inkscape:window-height="1054"
     id="namedview3478"
     showgrid="false"
     fit-margin-top="0"
     fit-margin-left="0"
     fit-margin-right="0"
     fit-margin-bottom="0"
     inkscape:zoom="0.48549107"
     inkscape:cx="800.81941"
     inkscape:cy="882.41209"
     inkscape:window-x="0"
     inkscape:window-y="0"
     inkscape:window-maximized="1"
     inkscape:current-layer="svg3474" />
  <path
     d="m 1980,1084 q 0,159 -112.5,271.5 Q 1755,1468 1596,1468 l -1088,0 Q 323,1468 191.5,1336.5 60,1205 60,1020 60,888 131,778.5 202,669 318,615 316,587 316,572 316,360 466,210 616,60 828,60 q 158,0 286.5,88 128.5,88 187.5,230 70,-62 166,-62 106,0 181,75 75,75 75,181 0,75 -41,138 129,30 213,134.5 84,104.5 84,239.5 z"
     id="path3476"
     style="fill:none;stroke:#6aa4c8;stroke-width:120;stroke-miterlimit:4;stroke-dasharray:none;stroke-opacity:1"
     inkscape:connector-curvature="0" />
</svg>
